<svg xmlns="http://www.w3.org/2000/svg" viewBox="0 0 145.09 131.49"><defs><style>.cls-1{isolation:isolate;}.cls-2{fill:#e98d22;}.cls-3{fill:#fcd8a9;mix-blend-mode:multiply;}.cls-4{fill:#fddc54;}.cls-5{opacity:0.5;mix-blend-mode:soft-light;}.cls-6{fill:#fff;}</style></defs><g class="cls-1"><g id="OBJECTS"><path class="cls-2" d="M322.54,268.24a30.55,30.55,0,0,0-15.16,1.11,18.75,18.75,0,0,0-11,10.06c-1.94,4.75-1.23,10.65,2.32,14.34-4.71-2.14-11-2-15.08,1.16a14.59,14.59,0,0,0-5.26,13.81,22.62,22.62,0,0,0-2.58-2.11,24.23,24.23,0,0,0-35.95,9.14c1.87-6.64-1.31-14-6.7-18.33s-12.55-5.87-19.45-5.64-13.61,2.09-20.23,4a11.34,11.34,0,0,0,7.83-6.66,7.91,7.91,0,0,0,.7-2.5,6.92,6.92,0,0,0-.81-2.59,13.71,13.71,0,0,0-3.17-4.41,13.14,13.14,0,0,0-6-3.2c.53.11,2.14-1.9,2.47-2.28a14.85,14.85,0,0,0,1.93-2.91,15.46,15.46,0,0,0,1.8-6.43c.23-5.12-2-9.49-5.46-13.11a22.18,22.18,0,0,0-6.9-4.89,13.88,13.88,0,0,0-8.33-1.11,19,19,0,0,0,16-20.58c-.25-2.8-.84-6.62-2.93-8.65a15.33,15.33,0,0,0,19.32-22.13,28.81,28.81,0,0,0,13,5.83,11.62,11.62,0,0,0,5.8-.13,9.6,9.6,0,0,0,5.46-5.68,28.41,28.41,0,0,0,1.57-7.95,14.74,14.74,0,0,0,1.12,4.84,5.59,5.59,0,0,0,3.64,3.15c2.37.52,4.8-1.15,5.93-3.31s1.15-4.4,1.28-6.83c.08,4.23,3.17,8,7,9.72s8.35,1.55,12.42.44a53.91,53.91,0,0,0,11.05-4.89l.5-.27A9.78,9.78,0,0,0,291.3,202c-3.55,6.56-1.56,15.31,3.84,20.45s13.54,6.8,20.84,5.25a22.55,22.55,0,0,0,6.56,40.5Z" transform="translate(-177.46 -184.25)"/><path class="cls-3" d="M286.25,235.63a50.26,50.26,0,0,0-7.88-12.75c-7.05-8.25-16.76-14-28-15-21.17-2-41.47,14.09-45.46,34.81-.26,1.39-.45,2.79-.57,4.19a43,43,0,0,0,20.21,39.6c10.28,6.33,23.12,9.31,35,6.92A44.29,44.29,0,0,0,276,286.56a34.21,34.21,0,0,0,10.33-11C293.38,263.3,291.61,248.18,286.25,235.63Z" transform="translate(-177.46 -184.25)"/><path class="cls-4" d="M289.81,234.41a50.09,50.09,0,0,0-7.88-12.74c-7-8.25-16.76-14-28-15-21.17-2-41.47,14.08-45.46,34.8a37.31,37.31,0,0,0-.57,4.19,43,43,0,0,0,20.2,39.61c10.28,6.33,23.12,9.31,35.05,6.92a44.24,44.24,0,0,0,16.35-6.86,34.14,34.14,0,0,0,10.34-11C296.94,262.08,295.17,247,289.81,234.41Z" transform="translate(-177.46 -184.25)"/><path class="cls-3" d="M289.81,234.41a50.09,50.09,0,0,0-7.88-12.74,40.17,40.17,0,0,1-53.75,43.73,35.16,35.16,0,0,1-16.21-12,29.39,29.39,0,0,1-4-7.76,43,43,0,0,0,20.2,39.61c10.28,6.33,23.12,9.31,35.05,6.92a44.24,44.24,0,0,0,16.35-6.86,34.14,34.14,0,0,0,10.34-11C296.94,262.08,295.17,247,289.81,234.41Zm-12.15,32.18a2.16,2.16,0,0,1-.72.46,2.7,2.7,0,0,1-1.17.3,4.58,4.58,0,0,1-1.6-.26,2.38,2.38,0,0,1-1.81-.95,1.74,1.74,0,0,1,.36-2.07,3.58,3.58,0,0,1,2-.92,4.07,4.07,0,0,1,2.29.26,2,2,0,0,1,1.09,2A1.52,1.52,0,0,1,277.66,266.59Zm4,2.16a1,1,0,0,1-1.09.59,1.26,1.26,0,0,1-.74-.86,1.94,1.94,0,0,1-.07-1,.51.51,0,0,1,.09-.18.91.91,0,0,1,.23-.42,1.06,1.06,0,0,1,1-.17,1.12,1.12,0,0,1,.57.44,1.44,1.44,0,0,1,.18.54A1.83,1.83,0,0,1,281.67,268.75Zm5-7.34c-.64,1.61-2.08,3.39-3.92,3.63-1.55.2-2.59-1.1-3-2.44a6.75,6.75,0,0,1,4.56-8.25,2.71,2.71,0,0,1,1.13-.17,1.86,1.86,0,0,1,1.71,1.6A10,10,0,0,1,286.69,261.41Z" transform="translate(-177.46 -184.25)"/><path class="cls-3" d="M217.19,254.07a7.74,7.74,0,0,0,4.17,3,4.7,4.7,0,0,0,4.76-1.41,5.13,5.13,0,0,0,1-3.45,7.85,7.85,0,0,0-2.28-5.08,8.27,8.27,0,0,0-5.06-2.35,5,5,0,0,0-2.94.5C213.31,247.28,215.45,251.74,217.19,254.07Z" transform="translate(-177.46 -184.25)"/><path class="cls-3" d="M228.1,261.14a4.69,4.69,0,0,0,2.58.71,3.16,3.16,0,0,0,2.36-1.16,2.46,2.46,0,0,0,.3-2.56,3.9,3.9,0,0,0-2.94-1.66,4.75,4.75,0,0,0-2.87.13C225.34,257.62,226.54,260.19,228.1,261.14Z" transform="translate(-177.46 -184.25)"/><path class="cls-3" d="M229,253.13a1.55,1.55,0,0,0,.39,1.15,1.61,1.61,0,0,0,1.37.3,2.91,2.91,0,0,0,1.89-1.07,1.94,1.94,0,0,0-1.32-3.1C230,250.19,229.06,252,229,253.13Z" transform="translate(-177.46 -184.25)"/><g class="cls-5"><path class="cls-6" d="M232.66,218a17.61,17.61,0,0,0-5.45,4.92,9.33,9.33,0,0,0-1.63,7,6.45,6.45,0,0,0,4.79,5.08c2.4.48,4.82-.7,6.81-2.13s3.8-3.18,6.07-4.11,5.11-.94,7.72-1.1,5.37-.6,7.34-2.31a7,7,0,0,0,1.88-7.72c-1.89-4.74-7.64-4.63-11.91-4.38A33.85,33.85,0,0,0,232.66,218Z" transform="translate(-177.46 -184.25)"/><path class="cls-6" d="M240.8,232.05a4.5,4.5,0,0,0-1.27,4.07,3.93,3.93,0,0,0,4.39,2.64,5.44,5.44,0,0,0,4-3.58c.77-2.12.17-4.47-2.05-5.36C244.1,229.1,242,230.81,240.8,232.05Z" transform="translate(-177.46 -184.25)"/></g><path class="cls-3" d="M322.54,268.24a30.55,30.55,0,0,0-15.16,1.11,18.75,18.75,0,0,0-11,10.06c-1.94,4.75-1.23,10.65,2.32,14.34-4.71-2.14-11-2-15.08,1.16a14.59,14.59,0,0,0-5.26,13.81,22.62,22.62,0,0,0-2.58-2.11A16.33,16.33,0,0,1,279.12,296,16.51,16.51,0,0,1,294,289.81a22.65,22.65,0,0,1,2.53-16.05,22.16,22.16,0,0,1,12.63-9.91,25.69,25.69,0,0,1-9.06-15.14c-1.11-5.91-.48-12.55,2.53-17.76a19.36,19.36,0,0,1-17.89-24.11,9.38,9.38,0,0,1-7.68-6c-1.36-3.65-.28-7.64,1.05-11.36l.5-.27A9.78,9.78,0,0,0,291.3,202c-3.55,6.56-1.56,15.31,3.84,20.45s13.54,6.8,20.84,5.25a22.55,22.55,0,0,0,6.56,40.5Z" transform="translate(-177.46 -184.25)"/></g></g></svg>